# xmcd CD database file
#
# Track frame offsets:
#	150
#	18277
#	39080
#	57170
#
# Disc length: 1037 seconds
#
# Revision: 0
# Processed by: cddbd v1.5PL3 Copyright (c) Steve Scherf et al.
# Submitted via: CDex 1.51
#
DISCID=22040b04
DTITLE=五木ひろし - 愛別
DYEAR=1992
DGENRE=Vocal
TTITLE0=愛別
TTITLE1=弾き語り
TTITLE2=愛別[カラオケ]
TTITLE3=弾き語り[カラオケ]
EXTD=YEAR: 1992
EXTT0=
EXTT1=
EXTT2=
EXTT3=
PLAYORDER=
